<?xml version="1.0" standalone="no"?>
<svg viewBox="0 0 200 200" xmlns="http://www.w3.org/2000/svg">
  <path fill="#FFD6E8" d="M29.9,-54.4C37,-42,39.7,-30.7,47.8,-19.8C55.9,-9,69.3,1.5,68.8,10.4C68.3,19.3,53.8,26.7,42.9,34.5C32,42.2,24.5,50.2,15.8,51.9C7.1,53.6,-3,48.9,-10.9,43.6C-18.9,38.4,-24.8,32.5,-34,26.7C-43.1,21,-55.5,15.4,-65.4,4.1C-75.3,-7.2,-82.6,-24.1,-75.8,-32.8C-69,-41.5,-48.1,-42,-33.2,-50.8C-18.2,-59.6,-9.1,-76.8,1.2,-78.6C11.4,-80.4,22.8,-66.8,29.9,-54.4Z" transform="translate(100 100)" />
</svg>
