<?xml version="1.0" standalone="no"?>
<svg viewBox="0 0 200 200" xmlns="http://www.w3.org/2000/svg">
  <path fill="#0F62FE" d="M47.6,-71.8C62.7,-64.4,76.5,-52.8,84.7,-37.8C92.9,-22.8,95.5,-4.4,90.4,11.2C85.4,26.7,72.7,39.4,61,52.8C49.3,66.2,38.5,80.4,23.9,87.6C9.3,94.7,-9.3,94.7,-25.5,89C-41.8,83.3,-55.9,71.9,-66.1,58.3C-76.3,44.6,-82.7,28.7,-84.8,12.3C-87,-4.1,-85,-21,-77.7,-34.8C-70.4,-48.6,-57.7,-59.4,-43.9,-67.3C-30.1,-75.2,-15,-80.3,0.6,-81.2C16.3,-82.2,32.6,-79.1,47.6,-71.8Z" transform="translate(100 100)" />
</svg>
