<?xml version="1.0" standalone="no"?>
<svg viewBox="0 0 200 200" xmlns="http://www.w3.org/2000/svg">
  <path fill="#F2F4F8" d="M33.4,-58.9C46.8,-50.2,63.6,-48.3,75.2,-39.6C86.8,-30.9,93.3,-15.5,85.6,-4.4C77.9,6.6,56,13.1,41.5,16.8C27,20.5,19.9,21.3,14.2,29.1C8.5,36.8,4.3,51.4,-2.6,55.9C-9.5,60.4,-18.9,54.8,-26.2,48C-33.6,41.2,-38.7,33.3,-45.1,25.1C-51.5,16.9,-59.2,8.4,-62.6,-2C-66.1,-12.4,-65.3,-24.9,-59.3,-33.7C-53.3,-42.5,-41.9,-47.7,-31.1,-57.9C-20.4,-68.1,-10.2,-83.3,-0.1,-83.1C10,-83,20,-67.5,33.4,-58.9Z" transform="translate(100 100)" />
</svg>
